<svg xmlns="http://www.w3.org/2000/svg" viewBox="0 0 1200 630" width="1200" height="630">
  <defs>
    <linearGradient id="bg" x1="0" y1="0" x2="1" y2="1">
      <stop offset="0%" stop-color="#0a0f14"/>
      <stop offset="100%" stop-color="#000"/>
    </linearGradient>
  </defs>
  <rect width="1200" height="630" fill="url(#bg)"/>
  <circle cx="40" cy="40" r="1.2" fill="#3ba3ff" fill-opacity="0.10"/>
  <circle cx="40" cy="90" r="1.2" fill="#3ba3ff" fill-opacity="0.10"/>
  <circle cx="40" cy="140" r="1.2" fill="#3ba3ff" fill-opacity="0.10"/>
  <circle cx="40" cy="190" r="1.2" fill="#3ba3ff" fill-opacity="0.10"/>
  <circle cx="40" cy="240" r="1.2" fill="#3ba3ff" fill-opacity="0.10"/>
  <circle cx="40" cy="290" r="1.2" fill="#3ba3ff" fill-opacity="0.10"/>
  <circle cx="40" cy="340" r="1.2" fill="#3ba3ff" fill-opacity="0.10"/>
  <circle cx="40" cy="390" r="1.2" fill="#3ba3ff" fill-opacity="0.10"/>
  <circle cx="40" cy="440" r="1.2" fill="#3ba3ff" fill-opacity="0.10"/>
  <circle cx="40" cy="490" r="1.2" fill="#3ba3ff" fill-opacity="0.10"/>
  <circle cx="40" cy="540" r="1.2" fill="#3ba3ff" fill-opacity="0.10"/>
  <circle cx="40" cy="590" r="1.2" fill="#3ba3ff" fill-opacity="0.10"/>
  <circle cx="90" cy="40" r="1.2" fill="#3ba3ff" fill-opacity="0.10"/>
  <circle cx="90" cy="90" r="1.2" fill="#3ba3ff" fill-opacity="0.10"/>
  <circle cx="90" cy="140" r="1.2" fill="#3ba3ff" fill-opacity="0.10"/>
  <circle cx="90" cy="190" r="1.2" fill="#3ba3ff" fill-opacity="0.10"/>
  <circle cx="90" cy="240" r="1.2" fill="#3ba3ff" fill-opacity="0.10"/>
  <circle cx="90" cy="290" r="1.2" fill="#3ba3ff" fill-opacity="0.10"/>
  <circle cx="90" cy="340" r="1.2" fill="#3ba3ff" fill-opacity="0.10"/>
  <circle cx="90" cy="390" r="1.2" fill="#3ba3ff" fill-opacity="0.10"/>
  <circle cx="90" cy="440" r="1.2" fill="#3ba3ff" fill-opacity="0.10"/>
  <circle cx="90" cy="490" r="1.2" fill="#3ba3ff" fill-opacity="0.10"/>
  <circle cx="90" cy="540" r="1.2" fill="#3ba3ff" fill-opacity="0.10"/>
  <circle cx="90" cy="590" r="1.2" fill="#3ba3ff" fill-opacity="0.10"/>
  <circle cx="140" cy="40" r="1.2" fill="#3ba3ff" fill-opacity="0.10"/>
  <circle cx="140" cy="90" r="1.2" fill="#3ba3ff" fill-opacity="0.10"/>
  <circle cx="140" cy="140" r="1.2" fill="#3ba3ff" fill-opacity="0.10"/>
  <circle cx="140" cy="190" r="1.2" fill="#3ba3ff" fill-opacity="0.10"/>
  <circle cx="140" cy="240" r="1.2" fill="#3ba3ff" fill-opacity="0.10"/>
  <circle cx="140" cy="290" r="1.2" fill="#3ba3ff" fill-opacity="0.10"/>
  <circle cx="140" cy="340" r="1.2" fill="#3ba3ff" fill-opacity="0.10"/>
  <circle cx="140" cy="390" r="1.2" fill="#3ba3ff" fill-opacity="0.10"/>
  <circle cx="140" cy="440" r="1.2" fill="#3ba3ff" fill-opacity="0.10"/>
  <circle cx="140" cy="490" r="1.2" fill="#3ba3ff" fill-opacity="0.10"/>
  <circle cx="140" cy="540" r="1.2" fill="#3ba3ff" fill-opacity="0.10"/>
  <circle cx="140" cy="590" r="1.2" fill="#3ba3ff" fill-opacity="0.10"/>
  <circle cx="190" cy="40" r="1.2" fill="#3ba3ff" fill-opacity="0.10"/>
  <circle cx="190" cy="90" r="1.2" fill="#3ba3ff" fill-opacity="0.10"/>
  <circle cx="190" cy="140" r="1.2" fill="#3ba3ff" fill-opacity="0.10"/>
  <circle cx="190" cy="190" r="1.2" fill="#3ba3ff" fill-opacity="0.10"/>
  <circle cx="190" cy="240" r="1.2" fill="#3ba3ff" fill-opacity="0.10"/>
  <circle cx="190" cy="290" r="1.2" fill="#3ba3ff" fill-opacity="0.10"/>
  <circle cx="190" cy="340" r="1.2" fill="#3ba3ff" fill-opacity="0.10"/>
  <circle cx="190" cy="390" r="1.2" fill="#3ba3ff" fill-opacity="0.10"/>
  <circle cx="190" cy="440" r="1.2" fill="#3ba3ff" fill-opacity="0.10"/>
  <circle cx="190" cy="490" r="1.2" fill="#3ba3ff" fill-opacity="0.10"/>
  <circle cx="190" cy="540" r="1.2" fill="#3ba3ff" fill-opacity="0.10"/>
  <circle cx="190" cy="590" r="1.2" fill="#3ba3ff" fill-opacity="0.10"/>
  <circle cx="240" cy="40" r="1.2" fill="#3ba3ff" fill-opacity="0.10"/>
  <circle cx="240" cy="90" r="1.2" fill="#3ba3ff" fill-opacity="0.10"/>
  <circle cx="240" cy="140" r="1.2" fill="#3ba3ff" fill-opacity="0.10"/>
  <circle cx="240" cy="190" r="1.2" fill="#3ba3ff" fill-opacity="0.10"/>
  <circle cx="240" cy="240" r="1.2" fill="#3ba3ff" fill-opacity="0.10"/>
  <circle cx="240" cy="290" r="1.2" fill="#3ba3ff" fill-opacity="0.10"/>
  <circle cx="240" cy="340" r="1.2" fill="#3ba3ff" fill-opacity="0.10"/>
  <circle cx="240" cy="390" r="1.2" fill="#3ba3ff" fill-opacity="0.10"/>
  <circle cx="240" cy="440" r="1.2" fill="#3ba3ff" fill-opacity="0.10"/>
  <circle cx="240" cy="490" r="1.2" fill="#3ba3ff" fill-opacity="0.10"/>
  <circle cx="240" cy="540" r="1.2" fill="#3ba3ff" fill-opacity="0.10"/>
  <circle cx="240" cy="590" r="1.2" fill="#3ba3ff" fill-opacity="0.10"/>
  <circle cx="290" cy="40" r="1.2" fill="#3ba3ff" fill-opacity="0.10"/>
  <circle cx="290" cy="90" r="1.2" fill="#3ba3ff" fill-opacity="0.10"/>
  <circle cx="290" cy="140" r="1.2" fill="#3ba3ff" fill-opacity="0.10"/>
  <circle cx="290" cy="190" r="1.2" fill="#3ba3ff" fill-opacity="0.10"/>
  <circle cx="290" cy="240" r="1.2" fill="#3ba3ff" fill-opacity="0.10"/>
  <circle cx="290" cy="290" r="1.2" fill="#3ba3ff" fill-opacity="0.10"/>
  <circle cx="290" cy="340" r="1.2" fill="#3ba3ff" fill-opacity="0.10"/>
  <circle cx="290" cy="390" r="1.2" fill="#3ba3ff" fill-opacity="0.10"/>
  <circle cx="290" cy="440" r="1.2" fill="#3ba3ff" fill-opacity="0.10"/>
  <circle cx="290" cy="490" r="1.2" fill="#3ba3ff" fill-opacity="0.10"/>
  <circle cx="290" cy="540" r="1.2" fill="#3ba3ff" fill-opacity="0.10"/>
  <circle cx="290" cy="590" r="1.2" fill="#3ba3ff" fill-opacity="0.10"/>
  <circle cx="340" cy="40" r="1.2" fill="#3ba3ff" fill-opacity="0.10"/>
  <circle cx="340" cy="90" r="1.2" fill="#3ba3ff" fill-opacity="0.10"/>
  <circle cx="340" cy="140" r="1.2" fill="#3ba3ff" fill-opacity="0.10"/>
  <circle cx="340" cy="190" r="1.2" fill="#3ba3ff" fill-opacity="0.10"/>
  <circle cx="340" cy="240" r="1.2" fill="#3ba3ff" fill-opacity="0.10"/>
  <circle cx="340" cy="290" r="1.2" fill="#3ba3ff" fill-opacity="0.10"/>
  <circle cx="340" cy="340" r="1.2" fill="#3ba3ff" fill-opacity="0.10"/>
  <circle cx="340" cy="390" r="1.2" fill="#3ba3ff" fill-opacity="0.10"/>
  <circle cx="340" cy="440" r="1.2" fill="#3ba3ff" fill-opacity="0.10"/>
  <circle cx="340" cy="490" r="1.2" fill="#3ba3ff" fill-opacity="0.10"/>
  <circle cx="340" cy="540" r="1.2" fill="#3ba3ff" fill-opacity="0.10"/>
  <circle cx="340" cy="590" r="1.2" fill="#3ba3ff" fill-opacity="0.10"/>
  <circle cx="390" cy="40" r="1.2" fill="#3ba3ff" fill-opacity="0.10"/>
  <circle cx="390" cy="90" r="1.2" fill="#3ba3ff" fill-opacity="0.10"/>
  <circle cx="390" cy="140" r="1.2" fill="#3ba3ff" fill-opacity="0.10"/>
  <circle cx="390" cy="190" r="1.2" fill="#3ba3ff" fill-opacity="0.10"/>
  <circle cx="390" cy="240" r="1.2" fill="#3ba3ff" fill-opacity="0.10"/>
  <circle cx="390" cy="290" r="1.2" fill="#3ba3ff" fill-opacity="0.10"/>
  <circle cx="390" cy="340" r="1.2" fill="#3ba3ff" fill-opacity="0.10"/>
  <circle cx="390" cy="390" r="1.2" fill="#3ba3ff" fill-opacity="0.10"/>
  <circle cx="390" cy="440" r="1.2" fill="#3ba3ff" fill-opacity="0.10"/>
  <circle cx="390" cy="490" r="1.2" fill="#3ba3ff" fill-opacity="0.10"/>
  <circle cx="390" cy="540" r="1.2" fill="#3ba3ff" fill-opacity="0.10"/>
  <circle cx="390" cy="590" r="1.2" fill="#3ba3ff" fill-opacity="0.10"/>
  <circle cx="440" cy="40" r="1.2" fill="#3ba3ff" fill-opacity="0.10"/>
  <circle cx="440" cy="90" r="1.2" fill="#3ba3ff" fill-opacity="0.10"/>
  <circle cx="440" cy="140" r="1.2" fill="#3ba3ff" fill-opacity="0.10"/>
  <circle cx="440" cy="190" r="1.2" fill="#3ba3ff" fill-opacity="0.10"/>
  <circle cx="440" cy="240" r="1.2" fill="#3ba3ff" fill-opacity="0.10"/>
  <circle cx="440" cy="290" r="1.2" fill="#3ba3ff" fill-opacity="0.10"/>
  <circle cx="440" cy="340" r="1.2" fill="#3ba3ff" fill-opacity="0.10"/>
  <circle cx="440" cy="390" r="1.2" fill="#3ba3ff" fill-opacity="0.10"/>
  <circle cx="440" cy="440" r="1.2" fill="#3ba3ff" fill-opacity="0.10"/>
  <circle cx="440" cy="490" r="1.2" fill="#3ba3ff" fill-opacity="0.10"/>
  <circle cx="440" cy="540" r="1.2" fill="#3ba3ff" fill-opacity="0.10"/>
  <circle cx="440" cy="590" r="1.2" fill="#3ba3ff" fill-opacity="0.10"/>
  <circle cx="490" cy="40" r="1.2" fill="#3ba3ff" fill-opacity="0.10"/>
  <circle cx="490" cy="90" r="1.2" fill="#3ba3ff" fill-opacity="0.10"/>
  <circle cx="490" cy="140" r="1.2" fill="#3ba3ff" fill-opacity="0.10"/>
  <circle cx="490" cy="190" r="1.2" fill="#3ba3ff" fill-opacity="0.10"/>
  <circle cx="490" cy="240" r="1.2" fill="#3ba3ff" fill-opacity="0.10"/>
  <circle cx="490" cy="290" r="1.2" fill="#3ba3ff" fill-opacity="0.10"/>
  <circle cx="490" cy="340" r="1.2" fill="#3ba3ff" fill-opacity="0.10"/>
  <circle cx="490" cy="390" r="1.2" fill="#3ba3ff" fill-opacity="0.10"/>
  <circle cx="490" cy="440" r="1.2" fill="#3ba3ff" fill-opacity="0.10"/>
  <circle cx="490" cy="490" r="1.2" fill="#3ba3ff" fill-opacity="0.10"/>
  <circle cx="490" cy="540" r="1.2" fill="#3ba3ff" fill-opacity="0.10"/>
  <circle cx="490" cy="590" r="1.2" fill="#3ba3ff" fill-opacity="0.10"/>
  <circle cx="540" cy="40" r="1.2" fill="#3ba3ff" fill-opacity="0.10"/>
  <circle cx="540" cy="90" r="1.2" fill="#3ba3ff" fill-opacity="0.10"/>
  <circle cx="540" cy="140" r="1.2" fill="#3ba3ff" fill-opacity="0.10"/>
  <circle cx="540" cy="190" r="1.2" fill="#3ba3ff" fill-opacity="0.10"/>
  <circle cx="540" cy="240" r="1.2" fill="#3ba3ff" fill-opacity="0.10"/>
  <circle cx="540" cy="290" r="1.2" fill="#3ba3ff" fill-opacity="0.10"/>
  <circle cx="540" cy="340" r="1.2" fill="#3ba3ff" fill-opacity="0.10"/>
  <circle cx="540" cy="390" r="1.2" fill="#3ba3ff" fill-opacity="0.10"/>
  <circle cx="540" cy="440" r="1.2" fill="#3ba3ff" fill-opacity="0.10"/>
  <circle cx="540" cy="490" r="1.2" fill="#3ba3ff" fill-opacity="0.10"/>
  <circle cx="540" cy="540" r="1.2" fill="#3ba3ff" fill-opacity="0.10"/>
  <circle cx="540" cy="590" r="1.2" fill="#3ba3ff" fill-opacity="0.10"/>
  <circle cx="590" cy="40" r="1.2" fill="#3ba3ff" fill-opacity="0.10"/>
  <circle cx="590" cy="90" r="1.2" fill="#3ba3ff" fill-opacity="0.10"/>
  <circle cx="590" cy="140" r="1.2" fill="#3ba3ff" fill-opacity="0.10"/>
  <circle cx="590" cy="190" r="1.2" fill="#3ba3ff" fill-opacity="0.10"/>
  <circle cx="590" cy="240" r="1.2" fill="#3ba3ff" fill-opacity="0.10"/>
  <circle cx="590" cy="290" r="1.2" fill="#3ba3ff" fill-opacity="0.10"/>
  <circle cx="590" cy="340" r="1.2" fill="#3ba3ff" fill-opacity="0.10"/>
  <circle cx="590" cy="390" r="1.2" fill="#3ba3ff" fill-opacity="0.10"/>
  <circle cx="590" cy="440" r="1.2" fill="#3ba3ff" fill-opacity="0.10"/>
  <circle cx="590" cy="490" r="1.2" fill="#3ba3ff" fill-opacity="0.10"/>
  <circle cx="590" cy="540" r="1.2" fill="#3ba3ff" fill-opacity="0.10"/>
  <circle cx="590" cy="590" r="1.2" fill="#3ba3ff" fill-opacity="0.10"/>
  <circle cx="640" cy="40" r="1.2" fill="#3ba3ff" fill-opacity="0.10"/>
  <circle cx="640" cy="90" r="1.2" fill="#3ba3ff" fill-opacity="0.10"/>
  <circle cx="640" cy="140" r="1.2" fill="#3ba3ff" fill-opacity="0.10"/>
  <circle cx="640" cy="190" r="1.2" fill="#3ba3ff" fill-opacity="0.10"/>
  <circle cx="640" cy="240" r="1.2" fill="#3ba3ff" fill-opacity="0.10"/>
  <circle cx="640" cy="290" r="1.2" fill="#3ba3ff" fill-opacity="0.10"/>
  <circle cx="640" cy="340" r="1.2" fill="#3ba3ff" fill-opacity="0.10"/>
  <circle cx="640" cy="390" r="1.2" fill="#3ba3ff" fill-opacity="0.10"/>
  <circle cx="640" cy="440" r="1.2" fill="#3ba3ff" fill-opacity="0.10"/>
  <circle cx="640" cy="490" r="1.2" fill="#3ba3ff" fill-opacity="0.10"/>
  <circle cx="640" cy="540" r="1.2" fill="#3ba3ff" fill-opacity="0.10"/>
  <circle cx="640" cy="590" r="1.2" fill="#3ba3ff" fill-opacity="0.10"/>
  <circle cx="690" cy="40" r="1.2" fill="#3ba3ff" fill-opacity="0.10"/>
  <circle cx="690" cy="90" r="1.2" fill="#3ba3ff" fill-opacity="0.10"/>
  <circle cx="690" cy="140" r="1.2" fill="#3ba3ff" fill-opacity="0.10"/>
  <circle cx="690" cy="190" r="1.2" fill="#3ba3ff" fill-opacity="0.10"/>
  <circle cx="690" cy="240" r="1.2" fill="#3ba3ff" fill-opacity="0.10"/>
  <circle cx="690" cy="290" r="1.2" fill="#3ba3ff" fill-opacity="0.10"/>
  <circle cx="690" cy="340" r="1.2" fill="#3ba3ff" fill-opacity="0.10"/>
  <circle cx="690" cy="390" r="1.2" fill="#3ba3ff" fill-opacity="0.10"/>
  <circle cx="690" cy="440" r="1.2" fill="#3ba3ff" fill-opacity="0.10"/>
  <circle cx="690" cy="490" r="1.2" fill="#3ba3ff" fill-opacity="0.10"/>
  <circle cx="690" cy="540" r="1.2" fill="#3ba3ff" fill-opacity="0.10"/>
  <circle cx="690" cy="590" r="1.2" fill="#3ba3ff" fill-opacity="0.10"/>
  <circle cx="740" cy="40" r="1.2" fill="#3ba3ff" fill-opacity="0.10"/>
  <circle cx="740" cy="90" r="1.2" fill="#3ba3ff" fill-opacity="0.10"/>
  <circle cx="740" cy="140" r="1.2" fill="#3ba3ff" fill-opacity="0.10"/>
  <circle cx="740" cy="190" r="1.2" fill="#3ba3ff" fill-opacity="0.10"/>
  <circle cx="740" cy="240" r="1.2" fill="#3ba3ff" fill-opacity="0.10"/>
  <circle cx="740" cy="290" r="1.2" fill="#3ba3ff" fill-opacity="0.10"/>
  <circle cx="740" cy="340" r="1.2" fill="#3ba3ff" fill-opacity="0.10"/>
  <circle cx="740" cy="390" r="1.2" fill="#3ba3ff" fill-opacity="0.10"/>
  <circle cx="740" cy="440" r="1.2" fill="#3ba3ff" fill-opacity="0.10"/>
  <circle cx="740" cy="490" r="1.2" fill="#3ba3ff" fill-opacity="0.10"/>
  <circle cx="740" cy="540" r="1.2" fill="#3ba3ff" fill-opacity="0.10"/>
  <circle cx="740" cy="590" r="1.2" fill="#3ba3ff" fill-opacity="0.10"/>
  <circle cx="790" cy="40" r="1.2" fill="#3ba3ff" fill-opacity="0.10"/>
  <circle cx="790" cy="90" r="1.2" fill="#3ba3ff" fill-opacity="0.10"/>
  <circle cx="790" cy="140" r="1.2" fill="#3ba3ff" fill-opacity="0.10"/>
  <circle cx="790" cy="190" r="1.2" fill="#3ba3ff" fill-opacity="0.10"/>
  <circle cx="790" cy="240" r="1.2" fill="#3ba3ff" fill-opacity="0.10"/>
  <circle cx="790" cy="290" r="1.2" fill="#3ba3ff" fill-opacity="0.10"/>
  <circle cx="790" cy="340" r="1.2" fill="#3ba3ff" fill-opacity="0.10"/>
  <circle cx="790" cy="390" r="1.2" fill="#3ba3ff" fill-opacity="0.10"/>
  <circle cx="790" cy="440" r="1.2" fill="#3ba3ff" fill-opacity="0.10"/>
  <circle cx="790" cy="490" r="1.2" fill="#3ba3ff" fill-opacity="0.10"/>
  <circle cx="790" cy="540" r="1.2" fill="#3ba3ff" fill-opacity="0.10"/>
  <circle cx="790" cy="590" r="1.2" fill="#3ba3ff" fill-opacity="0.10"/>
  <circle cx="840" cy="40" r="1.2" fill="#3ba3ff" fill-opacity="0.10"/>
  <circle cx="840" cy="90" r="1.2" fill="#3ba3ff" fill-opacity="0.10"/>
  <circle cx="840" cy="140" r="1.2" fill="#3ba3ff" fill-opacity="0.10"/>
  <circle cx="840" cy="190" r="1.2" fill="#3ba3ff" fill-opacity="0.10"/>
  <circle cx="840" cy="240" r="1.2" fill="#3ba3ff" fill-opacity="0.10"/>
  <circle cx="840" cy="290" r="1.2" fill="#3ba3ff" fill-opacity="0.10"/>
  <circle cx="840" cy="340" r="1.2" fill="#3ba3ff" fill-opacity="0.10"/>
  <circle cx="840" cy="390" r="1.2" fill="#3ba3ff" fill-opacity="0.10"/>
  <circle cx="840" cy="440" r="1.2" fill="#3ba3ff" fill-opacity="0.10"/>
  <circle cx="840" cy="490" r="1.2" fill="#3ba3ff" fill-opacity="0.10"/>
  <circle cx="840" cy="540" r="1.2" fill="#3ba3ff" fill-opacity="0.10"/>
  <circle cx="840" cy="590" r="1.2" fill="#3ba3ff" fill-opacity="0.10"/>
  <circle cx="890" cy="40" r="1.2" fill="#3ba3ff" fill-opacity="0.10"/>
  <circle cx="890" cy="90" r="1.2" fill="#3ba3ff" fill-opacity="0.10"/>
  <circle cx="890" cy="140" r="1.2" fill="#3ba3ff" fill-opacity="0.10"/>
  <circle cx="890" cy="190" r="1.2" fill="#3ba3ff" fill-opacity="0.10"/>
  <circle cx="890" cy="240" r="1.2" fill="#3ba3ff" fill-opacity="0.10"/>
  <circle cx="890" cy="290" r="1.2" fill="#3ba3ff" fill-opacity="0.10"/>
  <circle cx="890" cy="340" r="1.2" fill="#3ba3ff" fill-opacity="0.10"/>
  <circle cx="890" cy="390" r="1.2" fill="#3ba3ff" fill-opacity="0.10"/>
  <circle cx="890" cy="440" r="1.2" fill="#3ba3ff" fill-opacity="0.10"/>
  <circle cx="890" cy="490" r="1.2" fill="#3ba3ff" fill-opacity="0.10"/>
  <circle cx="890" cy="540" r="1.2" fill="#3ba3ff" fill-opacity="0.10"/>
  <circle cx="890" cy="590" r="1.2" fill="#3ba3ff" fill-opacity="0.10"/>
  <circle cx="940" cy="40" r="1.2" fill="#3ba3ff" fill-opacity="0.10"/>
  <circle cx="940" cy="90" r="1.2" fill="#3ba3ff" fill-opacity="0.10"/>
  <circle cx="940" cy="140" r="1.2" fill="#3ba3ff" fill-opacity="0.10"/>
  <circle cx="940" cy="190" r="1.2" fill="#3ba3ff" fill-opacity="0.10"/>
  <circle cx="940" cy="240" r="1.2" fill="#3ba3ff" fill-opacity="0.10"/>
  <circle cx="940" cy="290" r="1.2" fill="#3ba3ff" fill-opacity="0.10"/>
  <circle cx="940" cy="340" r="1.2" fill="#3ba3ff" fill-opacity="0.10"/>
  <circle cx="940" cy="390" r="1.2" fill="#3ba3ff" fill-opacity="0.10"/>
  <circle cx="940" cy="440" r="1.2" fill="#3ba3ff" fill-opacity="0.10"/>
  <circle cx="940" cy="490" r="1.2" fill="#3ba3ff" fill-opacity="0.10"/>
  <circle cx="940" cy="540" r="1.2" fill="#3ba3ff" fill-opacity="0.10"/>
  <circle cx="940" cy="590" r="1.2" fill="#3ba3ff" fill-opacity="0.10"/>
  <circle cx="990" cy="40" r="1.2" fill="#3ba3ff" fill-opacity="0.10"/>
  <circle cx="990" cy="90" r="1.2" fill="#3ba3ff" fill-opacity="0.10"/>
  <circle cx="990" cy="140" r="1.2" fill="#3ba3ff" fill-opacity="0.10"/>
  <circle cx="990" cy="190" r="1.2" fill="#3ba3ff" fill-opacity="0.10"/>
  <circle cx="990" cy="240" r="1.2" fill="#3ba3ff" fill-opacity="0.10"/>
  <circle cx="990" cy="290" r="1.2" fill="#3ba3ff" fill-opacity="0.10"/>
  <circle cx="990" cy="340" r="1.2" fill="#3ba3ff" fill-opacity="0.10"/>
  <circle cx="990" cy="390" r="1.2" fill="#3ba3ff" fill-opacity="0.10"/>
  <circle cx="990" cy="440" r="1.2" fill="#3ba3ff" fill-opacity="0.10"/>
  <circle cx="990" cy="490" r="1.2" fill="#3ba3ff" fill-opacity="0.10"/>
  <circle cx="990" cy="540" r="1.2" fill="#3ba3ff" fill-opacity="0.10"/>
  <circle cx="990" cy="590" r="1.2" fill="#3ba3ff" fill-opacity="0.10"/>
  <circle cx="1040" cy="40" r="1.2" fill="#3ba3ff" fill-opacity="0.10"/>
  <circle cx="1040" cy="90" r="1.2" fill="#3ba3ff" fill-opacity="0.10"/>
  <circle cx="1040" cy="140" r="1.2" fill="#3ba3ff" fill-opacity="0.10"/>
  <circle cx="1040" cy="190" r="1.2" fill="#3ba3ff" fill-opacity="0.10"/>
  <circle cx="1040" cy="240" r="1.2" fill="#3ba3ff" fill-opacity="0.10"/>
  <circle cx="1040" cy="290" r="1.2" fill="#3ba3ff" fill-opacity="0.10"/>
  <circle cx="1040" cy="340" r="1.2" fill="#3ba3ff" fill-opacity="0.10"/>
  <circle cx="1040" cy="390" r="1.2" fill="#3ba3ff" fill-opacity="0.10"/>
  <circle cx="1040" cy="440" r="1.2" fill="#3ba3ff" fill-opacity="0.10"/>
  <circle cx="1040" cy="490" r="1.2" fill="#3ba3ff" fill-opacity="0.10"/>
  <circle cx="1040" cy="540" r="1.2" fill="#3ba3ff" fill-opacity="0.10"/>
  <circle cx="1040" cy="590" r="1.2" fill="#3ba3ff" fill-opacity="0.10"/>
  <circle cx="1090" cy="40" r="1.2" fill="#3ba3ff" fill-opacity="0.10"/>
  <circle cx="1090" cy="90" r="1.2" fill="#3ba3ff" fill-opacity="0.10"/>
  <circle cx="1090" cy="140" r="1.2" fill="#3ba3ff" fill-opacity="0.10"/>
  <circle cx="1090" cy="190" r="1.2" fill="#3ba3ff" fill-opacity="0.10"/>
  <circle cx="1090" cy="240" r="1.2" fill="#3ba3ff" fill-opacity="0.10"/>
  <circle cx="1090" cy="290" r="1.2" fill="#3ba3ff" fill-opacity="0.10"/>
  <circle cx="1090" cy="340" r="1.2" fill="#3ba3ff" fill-opacity="0.10"/>
  <circle cx="1090" cy="390" r="1.2" fill="#3ba3ff" fill-opacity="0.10"/>
  <circle cx="1090" cy="440" r="1.2" fill="#3ba3ff" fill-opacity="0.10"/>
  <circle cx="1090" cy="490" r="1.2" fill="#3ba3ff" fill-opacity="0.10"/>
  <circle cx="1090" cy="540" r="1.2" fill="#3ba3ff" fill-opacity="0.10"/>
  <circle cx="1090" cy="590" r="1.2" fill="#3ba3ff" fill-opacity="0.10"/>
  <circle cx="1140" cy="40" r="1.2" fill="#3ba3ff" fill-opacity="0.10"/>
  <circle cx="1140" cy="90" r="1.2" fill="#3ba3ff" fill-opacity="0.10"/>
  <circle cx="1140" cy="140" r="1.2" fill="#3ba3ff" fill-opacity="0.10"/>
  <circle cx="1140" cy="190" r="1.2" fill="#3ba3ff" fill-opacity="0.10"/>
  <circle cx="1140" cy="240" r="1.2" fill="#3ba3ff" fill-opacity="0.10"/>
  <circle cx="1140" cy="290" r="1.2" fill="#3ba3ff" fill-opacity="0.10"/>
  <circle cx="1140" cy="340" r="1.2" fill="#3ba3ff" fill-opacity="0.10"/>
  <circle cx="1140" cy="390" r="1.2" fill="#3ba3ff" fill-opacity="0.10"/>
  <circle cx="1140" cy="440" r="1.2" fill="#3ba3ff" fill-opacity="0.10"/>
  <circle cx="1140" cy="490" r="1.2" fill="#3ba3ff" fill-opacity="0.10"/>
  <circle cx="1140" cy="540" r="1.2" fill="#3ba3ff" fill-opacity="0.10"/>
  <circle cx="1140" cy="590" r="1.2" fill="#3ba3ff" fill-opacity="0.10"/>
  <circle cx="1190" cy="40" r="1.2" fill="#3ba3ff" fill-opacity="0.10"/>
  <circle cx="1190" cy="90" r="1.2" fill="#3ba3ff" fill-opacity="0.10"/>
  <circle cx="1190" cy="140" r="1.2" fill="#3ba3ff" fill-opacity="0.10"/>
  <circle cx="1190" cy="190" r="1.2" fill="#3ba3ff" fill-opacity="0.10"/>
  <circle cx="1190" cy="240" r="1.2" fill="#3ba3ff" fill-opacity="0.10"/>
  <circle cx="1190" cy="290" r="1.2" fill="#3ba3ff" fill-opacity="0.10"/>
  <circle cx="1190" cy="340" r="1.2" fill="#3ba3ff" fill-opacity="0.10"/>
  <circle cx="1190" cy="390" r="1.2" fill="#3ba3ff" fill-opacity="0.10"/>
  <circle cx="1190" cy="440" r="1.2" fill="#3ba3ff" fill-opacity="0.10"/>
  <circle cx="1190" cy="490" r="1.2" fill="#3ba3ff" fill-opacity="0.10"/>
  <circle cx="1190" cy="540" r="1.2" fill="#3ba3ff" fill-opacity="0.10"/>
  <circle cx="1190" cy="590" r="1.2" fill="#3ba3ff" fill-opacity="0.10"/>
  <!-- accent stripe on left -->
  <rect x="0" y="0" width="14" height="630" fill="#3ba3ff"/>
  <!-- corner brackets (terminal feel) -->
  <path d="M 60 60 L 60 120 M 60 60 L 120 60" stroke="#3ba3ff" stroke-width="3" fill="none" opacity="0.6"/>
  <path d="M 1140 570 L 1140 510 M 1140 570 L 1080 570" stroke="#3ba3ff" stroke-width="3" fill="none" opacity="0.6"/>
  <!-- category label, small -->
  <text x="80" y="160" font-family="'Courier New',monospace" font-size="22" font-weight="700"
        fill="#3ba3ff" letter-spacing="3">DEFENSIVE</text>
  <!-- main title, huge -->
  <text x="80" y="330" font-family="'Helvetica Neue',Arial,sans-serif" font-size="120" font-weight="800"
        fill="#ffffff" letter-spacing="-2">TRIPWIRE</text>
  <!-- subtitle, muted -->
  <text x="80" y="400" font-family="'Helvetica Neue',Arial,sans-serif" font-size="36" font-weight="400"
        fill="#b0b8c4">File Integrity Monitoring · HIDS</text>
  <!-- prompt-like brand line at bottom -->
  <text x="80" y="550" font-family="'Courier New',monospace" font-size="20" font-weight="500"
        fill="#3ba3ff" opacity="0.7">$ shirishinamdar.github.io _</text>
</svg>
